<?xml version="1.0" encoding="UTF-8" standalone="yes"?>
<svg version="1.2" width="300.000000pt" height="300.000000pt" viewBox="0 0 300.000000 300.000000" preserveAspectRatio="xMidYMid meet" baseProfile="tiny-ps" xmlns="http://www.w3.org/2000/svg">
  <title>bimi-svg-tiny-12-ps</title>
  <g transform="translate(0.000000,300.000000) scale(0.100000,-0.100000)" fill="#000000" stroke="none">
    <path d="M1373 2489 c-227 -29 -401 -116 -577 -287 -121 -117 -208 -271 -257&#xA;-452 -20 -73 -23 -108 -23 -250 0 -120 5 -183 17 -232 62 -251 214 -468 421&#xA;-603 110 -72 172 -100 293 -132 86 -23 117 -27 253 -27 233 0 359 37 555 164&#xA;139 91 282 260 351 416 78 176 105 428 66 614 -64 306 -252 555 -521 689 -180&#xA;90 -384 126 -578 100z m222 -29 c249 -28 438 -120 602 -293 185 -196 272 -434&#xA;260 -707 -12 -250 -91 -446 -248 -614 -186 -200 -398 -299 -664 -313 -212 -11&#xA;-399 42 -580 162 -194 130 -341 337 -397 560 -32 132 -32 364 1 489 26 101 76&#xA;215 129 296 44 66 188 213 255 259 126 86 283 144 434 160 111 12 109 12 208&#xA;1z"/>
    <path d="M847 1852 c-15 -16 -17 -58 -17 -351 -1 -385 -4 -371 85 -371 79 0&#xA;88 15 90 150 1 61 4 113 7 116 4 3 32 -48 63 -113 31 -65 64 -126 72 -135 25&#xA;-28 126 -25 153 4 19 21 20 34 20 344 0 310 -1 322 -21 348 -17 22 -28 26 -70&#xA;26 -80 0 -89 -15 -89 -160 0 -66 -4 -120 -8 -120 -9 0 -29 38 -91 172 -21 47&#xA;-48 91 -60 97 -33 18 -115 14 -134 -7z m160 -84 c18 -40 61 -138 97 -218 l66&#xA;-145 0 218 0 217 60 0 60 0 0 -340 0 -340 -63 0 -62 0 -95 206 -95 206 -3 -53&#xA;c-2 -30 -2 -123 0 -207 l3 -152 -57 0 -58 0 0 340 0 340 58 0 58 0 31 -72z"/>
    <path d="M1392 1854 c-22 -15 -22 -15 -22 -353 0 -321 1 -339 19 -355 17 -15&#xA;40 -18 173 -17 145 1 154 2 172 24 14 17 17 33 13 71 -6 64 -23 76 -106 76&#xA;-85 0 -93 6 -89 61 l3 44 63 6 c79 8 94 21 95 88 0 69 -16 85 -96 91 l-62 5 0&#xA;45 0 45 77 5 c55 4 83 11 97 25 20 17 22 17 39 2 18 -16 47 -25 90 -26 l22 -1&#xA;0 -254 c0 -241 1 -255 21 -280 17 -22 28 -26 73 -26 88 0 88 -3 87 283 -1 135&#xA;2 253 5 261 4 10 18 16 36 16 31 0 68 16 80 34 4 6 8 34 8 63 0 80 -8 83 -218&#xA;83 -145 0 -179 -3 -203 -17 -26 -16 -29 -16 -47 0 -26 24 -296 25 -330 1z&#xA;m328 -73 l0 -59 -100 5 -100 6 0 -87 0 -86 83 0 83 0 -1 -61 0 -61 -83 4 -82&#xA;3 0 -87 0 -88 100 0 100 0 0 -57 0 -58 -160 2 -161 2 -2 340 -2 341 163 0 162&#xA;0 0 -59z m442 -1 l-4 -59 -64 6 -65 6 3 -287 3 -286 -63 0 -63 0 1 283 1 282&#xA;-65 -3 -66 -2 0 60 0 60 193 0 192 0 -3 -60z"/>
  </g>
</svg>